{"title":"Meadowland(2015)MPEG-4[DaScubaDude]","uid":15302964,"size":1024942318,"categoryP":"video","categoryS":"movies","magnet":"?xt=urn:btih:d344a9efe22f100bddd5ef6e635ce80742fd66d9&amp;dn=Meadowland%282015%29MPEG-4%5BDaScubaDude%5D&amp;tr=udp%3A%2F%2Ftracker.leechers-paradise.org%3A6969&amp;tr=udp%3A%2F%2Fzer0day.ch%3A1337&amp;tr=udp%3A%2F%2Fopen.demonii.com%3A1337&amp;tr=udp%3A%2F%2Ftracker.coppersurfer.tk%3A6969&amp;tr=udp%3A%2F%2Fexodus.desync.com%3A6969","seeders":1,"leechers":0,"uploader":"dascuba","files":1,"time":1468505315,"description":"Meadowland (2015)\r\nR | 1h 45min | Drama | 23 October 2015 (USA)\r\nIn the hazy aftermath of an unimaginable loss, Sarah and Phil come unhinged, recklessly ignoring the repercussions. Phil starts to lose sight of his morals; Sarah takes off on a potentially disastrous journey, falling deeper into her own fever dream.\r\nDirector: Reed Morano\r\nWriter: Chris Rossi\r\nStars: Olivia Wilde, Juno Temple, Nick Sandow |\r\n\r\nGeneral\r\nComplete name                            : MeadowlandMEADOWLAND_Title1.mp4\r\nFormat                                   : MPEG-4\r\nFormat profile                           : Base Media\r\nCodec ID                                 : isom (isom/iso2/avc1/mp41)\r\nFile size                                : 977 MiB\r\nDuration                                 : 1h 34mn\r\nOverall bit rate                         : 1 439 Kbps\r\nMovie name                               : MEADOWLAND\r\nWriting application                      : Lavf54.6.100\r\n\r\nVideo\r\nID                                       : 1\r\nFormat                                   : AVC\r\nFormat/Info                              : Advanced Video Codec\r\nFormat profile                           :   \r\nFormat settings, CABAC                   : No\r\nFormat settings, ReFrames                : 6 frames\r\nCodec ID                                 : avc1\r\nCodec ID/Info                            : Advanced Video Coding\r\nDuration                                 : 1h 34mn\r\nBit rate                                 : 1 185 Kbps\r\nWidth                                    : 720 pixels\r\nHeight                                   : 404 pixels\r\nDisplay aspect ratio                     : 16:9\r\nFrame rate mode                          : Constant\r\nFrame rate                               : 29.970 (30000/1001) fps\r\nColor space                              : YUV\r\nChroma subsampling                       : 4:2:0\r\nBit depth                                : 8 bits\r\nScan type                                : Progressive\r\nBits/(Pixel*Frame)                       : 0.136\r\nStream size                              : 805 MiB (82%)\r\n\r\nAudio\r\nID                                       : 2\r\nFormat                                   : AAC\r\nFormat/Info                              : Advanced Audio Codec\r\nFormat profile                           : LC\r\nCodec ID                                 : 40\r\nDuration                                 : 1h 34mn\r\nBit rate mode                            : Constant\r\nBit rate                                 : 248 Kbps\r\nChannel(s)                               : 2 channels\r\nChannel(s)_Original                      : 6 channels\r\nChannel positions                        : Front: L C R, Side: L R, LFE\r\nSampling rate                            : 44.1 KHz\r\nFrame rate                               : 43.066 fps (1024 spf)\r\nCompression mode                         : Lossy\r\nStream size                              : 168 MiB (17%)\r\nDefault                                  : Yes\r\nAlternate group                          : 1","torrent":{"xt":"urn:btih:d344a9efe22f100bddd5ef6e635ce80742fd66d9","amp;dn":"Meadowland%282015%29MPEG-4%5BDaScubaDude%5D","amp;tr":["udp%3A%2F%2Ftracker.leechers-paradise.org%3A6969","udp%3A%2F%2Fzer0day.ch%3A1337","udp%3A%2F%2Fopen.demonii.com%3A1337","udp%3A%2F%2Ftracker.coppersurfer.tk%3A6969","udp%3A%2F%2Fexodus.desync.com%3A6969"],"infoHash":"d344a9efe22f100bddd5ef6e635ce80742fd66d9","infoHashBuffer":{"type":"Buffer","data":[211,68,169,239,226,47,16,11,221,213,239,110,99,92,232,7,66,253,102,217]},"announce":[],"urlList":[]}}